<?xml version="1.0" encoding="UTF-8"?> <svg xmlns="http://www.w3.org/2000/svg" width="98" height="99" viewBox="0 0 98 99" fill="none"> <circle cx="48.5" cy="49.5" r="46.5" fill="#282A2C"></circle> <path d="M48.312 0C21.078 0 -1 22.078 -1 49.312C-1 76.546 21.078 98.624 48.312 98.624C75.546 98.624 97.624 76.546 97.624 49.312C97.624 22.078 75.546 0 48.312 0ZM35.108 72.304H23.213V36.52H35.108V72.304ZM29.161 31.637H29.081C25.091 31.637 22.505 28.886 22.505 25.451C22.505 21.94 25.168 19.269 29.239 19.269C33.31 19.269 35.813 21.939 35.891 25.451C35.891 28.887 33.311 31.637 29.161 31.637ZM78.007 72.304H66.111V53.159C66.111 48.35 64.39 45.068 60.085 45.068C56.798 45.068 54.842 47.28 53.981 49.42C53.667 50.185 53.586 51.25 53.586 52.32V72.304H41.686C41.686 72.304 41.846 39.879 41.686 36.52H53.584V41.592C55.165 39.157 57.988 35.679 64.307 35.679C72.136 35.679 78.005 40.793 78.005 51.785V72.304H78.007Z" fill="white"></path> </svg> 