<?xml version="1.0" encoding="UTF-8"?> <svg xmlns="http://www.w3.org/2000/svg" width="99" height="99" viewBox="0 0 99 99" fill="none"> <circle cx="49.5" cy="49.5" r="46.5" fill="#282A2C"></circle> <path d="M49.312 0C22.078 0 0 22.078 0 49.312C0 76.546 22.078 98.624 49.312 98.624C76.546 98.624 98.624 76.546 98.624 49.312C98.624 22.078 76.546 0 49.312 0ZM70.696 55.83C71.084 56.31 72.007 57.245 73.467 58.637H73.501L73.535 58.67L73.569 58.705L73.638 58.773C76.854 61.761 79.032 64.282 80.173 66.335C80.242 66.448 80.316 66.592 80.396 66.763C80.475 66.934 80.555 67.236 80.635 67.669C80.714 68.104 80.708 68.49 80.618 68.832C80.527 69.173 80.242 69.489 79.763 69.773C79.284 70.059 78.611 70.201 77.744 70.201L68.985 70.339C68.438 70.453 67.799 70.396 67.069 70.168C66.338 69.939 65.746 69.688 65.29 69.415L64.605 69.003C63.92 68.524 63.122 67.794 62.21 66.814C61.297 65.833 60.516 64.949 59.866 64.162C59.216 63.375 58.52 62.715 57.778 62.177C57.036 61.641 56.392 61.464 55.845 61.647C55.777 61.671 55.685 61.711 55.571 61.767C55.456 61.824 55.263 61.988 54.989 62.263C54.715 62.537 54.47 62.874 54.253 63.272C54.036 63.672 53.842 64.265 53.671 65.052C53.5 65.838 53.425 66.723 53.449 67.704C53.449 68.045 53.408 68.36 53.329 68.645C53.249 68.93 53.163 69.141 53.072 69.277L52.935 69.448C52.524 69.883 51.92 70.133 51.122 70.201H47.187C45.567 70.293 43.902 70.105 42.192 69.637C40.482 69.168 38.981 68.565 37.693 67.823C36.403 67.083 35.229 66.33 34.169 65.566C33.108 64.801 32.304 64.146 31.757 63.599L30.902 62.777C30.674 62.55 30.36 62.207 29.961 61.75C29.562 61.294 28.747 60.257 27.515 58.637C26.283 57.017 25.074 55.296 23.888 53.47C22.702 51.645 21.305 49.238 19.696 46.25C18.088 43.263 16.6 40.161 15.231 36.944C15.094 36.58 15.025 36.272 15.025 36.021C15.025 35.771 15.059 35.588 15.128 35.473L15.265 35.268C15.607 34.834 16.257 34.617 17.215 34.617L26.59 34.549C26.864 34.595 27.126 34.669 27.377 34.772C27.628 34.874 27.811 34.971 27.925 35.062L28.096 35.165C28.461 35.417 28.734 35.781 28.917 36.26C29.373 37.402 29.898 38.582 30.491 39.802C31.084 41.022 31.552 41.952 31.894 42.59L32.441 43.583C33.102 44.951 33.741 46.138 34.357 47.141C34.974 48.145 35.526 48.927 36.017 49.485C36.507 50.044 36.98 50.484 37.437 50.802C37.893 51.122 38.281 51.282 38.601 51.282C38.92 51.282 39.228 51.225 39.525 51.111C39.57 51.088 39.627 51.031 39.696 50.94C39.765 50.849 39.901 50.598 40.107 50.186C40.312 49.776 40.466 49.24 40.569 48.578C40.672 47.918 40.78 46.994 40.894 45.808C41.008 44.621 41.008 43.196 40.894 41.531C40.848 40.618 40.745 39.786 40.586 39.033C40.426 38.281 40.266 37.756 40.107 37.459L39.901 37.049C39.331 36.274 38.362 35.783 36.993 35.577C36.696 35.533 36.753 35.259 37.164 34.757C37.552 34.323 37.985 33.982 38.464 33.73C39.673 33.138 42.399 32.864 46.642 32.908C48.512 32.932 50.052 33.079 51.261 33.353C51.717 33.468 52.099 33.621 52.407 33.815C52.715 34.008 52.949 34.283 53.109 34.635C53.268 34.989 53.388 35.354 53.468 35.73C53.548 36.107 53.588 36.627 53.588 37.287C53.588 37.949 53.577 38.577 53.554 39.169C53.531 39.762 53.503 40.567 53.469 41.581C53.435 42.596 53.417 43.538 53.417 44.404C53.417 44.656 53.406 45.134 53.383 45.841C53.36 46.549 53.353 47.096 53.366 47.483C53.377 47.871 53.417 48.334 53.485 48.869C53.554 49.405 53.685 49.851 53.879 50.203C54.072 50.557 54.329 50.836 54.649 51.041C54.831 51.088 55.025 51.133 55.231 51.179C55.436 51.224 55.732 51.1 56.12 50.802C56.507 50.506 56.941 50.112 57.42 49.622C57.899 49.133 58.492 48.369 59.199 47.33C59.905 46.294 60.681 45.067 61.525 43.652C62.894 41.28 64.114 38.713 65.186 35.953C65.277 35.724 65.391 35.525 65.528 35.354C65.665 35.182 65.79 35.062 65.904 34.994L66.041 34.891C66.086 34.868 66.143 34.84 66.212 34.806C66.281 34.773 66.429 34.738 66.657 34.703C66.885 34.67 67.113 34.664 67.342 34.687L77.196 34.617C78.085 34.504 78.815 34.532 79.385 34.702C79.955 34.873 80.309 35.062 80.446 35.267L80.652 35.609C81.176 37.07 79.466 40.421 75.52 45.668C74.972 46.399 74.23 47.369 73.296 48.577C71.517 50.859 70.491 52.353 70.219 53.062C69.829 53.995 69.989 54.919 70.696 55.83Z" fill="white"></path> </svg> 